<svg width="30" height="30" viewBox="0 0 42 40" fill="none" xmlns="http://www.w3.org/2000/svg">
<path d="M39.457 22.2656V1.17188C39.457 0.524597 38.9062 0 38.2266 0H3.77344C3.0938 0 2.54297 0.524597 2.54297 1.17188V22.2656C2.54297 22.9129 3.0938 23.4375 3.77344 23.4375H12.3867V24.6094C12.3867 25.2567 12.9375 25.7812 13.6172 25.7812H17.3086V38.8281C17.3086 39.4754 17.8594 40 18.5391 40H23.4609C24.1406 40 24.6914 39.4754 24.6914 38.8281V25.7812H28.3828C29.0625 25.7812 29.6133 25.2567 29.6133 24.6094V23.4375H38.2266C38.9062 23.4375 39.457 22.9129 39.457 22.2656ZM22.2305 37.6562H19.7695V25.7812H22.2305V37.6562ZM27.1523 23.4375H14.8477V21.0938H27.1523V23.4375ZM36.9961 21.0938H29.6133V19.9219C29.6133 19.2746 29.0625 18.75 28.3828 18.75H13.6172C12.9375 18.75 12.3867 19.2746 12.3867 19.9219V21.0938H5.00391V2.34375H36.9961V21.0938Z" fill="black"/>
<path d="M21 16.4062C21.6796 16.4062 22.2305 15.8817 22.2305 15.2344V5.85938C22.2305 5.2121 21.6796 4.6875 21 4.6875C20.3204 4.6875 19.7695 5.2121 19.7695 5.85938V15.2344C19.7695 15.8817 20.3204 16.4062 21 16.4062Z" fill="black"/>
<path d="M11.1562 16.4062H13.6172C15.6526 16.4062 17.3086 14.8291 17.3086 12.8906C17.3086 11.991 16.9513 11.1694 16.3656 10.5469C16.9516 9.92432 17.3086 9.10278 17.3086 8.20312C17.3086 6.26465 15.6526 4.6875 13.6172 4.6875H11.1562C10.4766 4.6875 9.92578 5.2121 9.92578 5.85938V15.2344C9.92578 15.8817 10.4766 16.4062 11.1562 16.4062ZM13.6172 14.0625H12.3867V11.7188H13.6172C14.2955 11.7188 14.8477 12.2446 14.8477 12.8906C14.8477 13.5367 14.2955 14.0625 13.6172 14.0625ZM12.3867 7.03125H13.6172C14.2955 7.03125 14.8477 7.55707 14.8477 8.20312C14.8477 8.84918 14.2955 9.375 13.6172 9.375H12.3867V7.03125Z" fill="black"/>
<path d="M25.9219 16.4062H28.3828C30.4182 16.4062 32.0742 14.8291 32.0742 12.8906V8.20312C32.0742 6.26465 30.4182 4.6875 28.3828 4.6875H25.9219C25.2422 4.6875 24.6914 5.2121 24.6914 5.85938V15.2344C24.6914 15.8817 25.2422 16.4062 25.9219 16.4062ZM27.1523 7.03125H28.3828C29.0612 7.03125 29.6133 7.55707 29.6133 8.20312V12.8906C29.6133 13.5367 29.0612 14.0625 28.3828 14.0625H27.1523V7.03125Z" fill="black"/>
</svg>
