<svg width="30" height="25" viewBox="0 0 24 25" fill="none" xmlns="http://www.w3.org/2000/svg">
<rect x="0.5" y="0.5" width="23" height="24" stroke="black"/>
<path d="M9.344 19.704C9.344 19.5653 9.31733 19.496 9.264 19.496L8.896 19.672C8.896 19.5973 8.85333 19.544 8.768 19.512L8.64 19.496C8.55467 19.496 8.448 19.5333 8.32 19.608C8.29867 19.5547 8.272 19.5013 8.24 19.448C8.208 19.3947 8.18133 19.3467 8.16 19.304C8.02133 19.0373 7.88267 18.744 7.744 18.424C7.616 18.0933 7.49333 17.7787 7.376 17.48C7.26933 17.1813 7.184 16.9467 7.12 16.776C7.07733 16.6373 7.02933 16.4293 6.976 16.152C6.92267 15.8747 6.86933 15.5227 6.816 15.096C6.93333 15.1707 7.024 15.208 7.088 15.208C7.16267 15.208 7.232 15.096 7.296 14.872C7.328 14.9147 7.38667 14.936 7.472 14.936C7.536 14.936 7.584 14.9147 7.616 14.872L7.872 14.488L8.16 14.584H8.176C8.19733 14.584 8.21867 14.5733 8.24 14.552C8.26133 14.5307 8.29333 14.5093 8.336 14.488C8.42133 14.4347 8.48533 14.408 8.528 14.408L8.576 14.424C8.84267 14.552 9.01333 14.7867 9.088 15.128C9.28 15.9387 9.472 16.344 9.664 16.344C9.856 16.344 10.08 16.1413 10.336 15.736C10.464 15.5333 10.592 15.2987 10.72 15.032C10.8587 14.7653 10.9973 14.4667 11.136 14.136C11.1573 14.264 11.1787 14.328 11.2 14.328C11.2533 14.328 11.344 14.1947 11.472 13.928C11.6107 13.6613 11.8293 13.2933 12.128 12.824C12.2987 12.536 12.512 12.2107 12.768 11.848C13.0347 11.4853 13.3173 11.112 13.616 10.728C13.9147 10.344 14.2027 9.98133 14.48 9.64C14.768 9.29867 15.024 9.00533 15.248 8.76C15.472 8.51467 15.6373 8.35467 15.744 8.28C16.1493 8.00267 16.4693 7.736 16.704 7.48C16.6933 7.55467 16.6773 7.624 16.656 7.688C16.6453 7.74133 16.64 7.77867 16.64 7.8C16.64 7.84267 16.6613 7.864 16.704 7.864L17.152 7.64V7.704C17.152 7.78933 17.1733 7.832 17.216 7.832C17.248 7.832 17.312 7.784 17.408 7.688C17.504 7.592 17.5573 7.52267 17.568 7.48L17.536 7.704L18.08 7.384L17.952 7.672C18.1227 7.55467 18.2453 7.496 18.32 7.496C18.3627 7.496 18.3947 7.52267 18.416 7.576C18.4373 7.61867 18.448 7.66133 18.448 7.704C18.448 7.768 18.4213 7.84267 18.368 7.928C18.3147 8.01333 18.2453 8.11467 18.16 8.232C18.096 8.31733 17.9893 8.44533 17.84 8.616C17.7013 8.776 17.488 9.016 17.2 9.336C16.912 9.64533 16.528 10.0773 16.048 10.632C15.92 10.7707 15.7227 11.016 15.456 11.368C15.1893 11.7093 14.8853 12.1093 14.544 12.568C14.2133 13.016 13.8827 13.4693 13.552 13.928C13.2213 14.3867 12.928 14.8027 12.672 15.176C12.416 15.5387 12.2347 15.8107 12.128 15.992L11.136 17.672C10.9227 18.0347 10.7467 18.3333 10.608 18.568C10.4693 18.792 10.3627 18.9467 10.288 19.032C10.128 19.224 9.952 19.3947 9.76 19.544L9.616 19.464L9.488 19.544L9.344 19.704Z" fill="black"/>
</svg>
