<svg width="60" height="30" viewBox="0 0 67 27" fill="none" xmlns="http://www.w3.org/2000/svg">
<rect x="0.5" y="0.5" width="66" height="26" stroke="black"/>
<path d="M13.6367 9.87305L13.7012 12.5215H13.4609C13.3477 11.8574 13.0684 11.3242 12.623 10.9219C12.1816 10.5156 11.7031 10.3125 11.1875 10.3125C10.7891 10.3125 10.4727 10.4199 10.2383 10.6348C10.0078 10.8457 9.89258 11.0898 9.89258 11.3672C9.89258 11.543 9.93359 11.6992 10.0156 11.8359C10.1289 12.0195 10.3105 12.2012 10.5605 12.3809C10.7441 12.5098 11.168 12.7383 11.832 13.0664C12.7617 13.5234 13.3887 13.9551 13.7129 14.3613C14.0332 14.7676 14.1934 15.2324 14.1934 15.7559C14.1934 16.4199 13.9336 16.9922 13.4141 17.4727C12.8984 17.9492 12.2422 18.1875 11.4453 18.1875C11.1953 18.1875 10.959 18.1621 10.7363 18.1113C10.5137 18.0605 10.2344 17.9648 9.89844 17.8242C9.71094 17.7461 9.55664 17.707 9.43555 17.707C9.33398 17.707 9.22656 17.7461 9.11328 17.8242C9 17.9023 8.9082 18.0215 8.83789 18.1816H8.62109V15.1816H8.83789C9.00977 16.0254 9.33984 16.6699 9.82812 17.1152C10.3203 17.5566 10.8496 17.7773 11.416 17.7773C11.8535 17.7773 12.2012 17.6582 12.459 17.4199C12.7207 17.1816 12.8516 16.9043 12.8516 16.5879C12.8516 16.4004 12.8008 16.2188 12.6992 16.043C12.6016 15.8672 12.4512 15.7012 12.248 15.5449C12.0449 15.3848 11.6855 15.1777 11.1699 14.9238C10.4473 14.5684 9.92773 14.2656 9.61133 14.0156C9.29492 13.7656 9.05078 13.4863 8.87891 13.1777C8.71094 12.8691 8.62695 12.5293 8.62695 12.1582C8.62695 11.5254 8.85938 10.9863 9.32422 10.541C9.78906 10.0957 10.375 9.87305 11.082 9.87305C11.3398 9.87305 11.5898 9.9043 11.832 9.9668C12.0156 10.0137 12.2383 10.1016 12.5 10.2305C12.7656 10.3555 12.9512 10.418 13.0566 10.418C13.1582 10.418 13.2383 10.3867 13.2969 10.3242C13.3555 10.2617 13.4102 10.1113 13.4609 9.87305H13.6367ZM17.9492 10.5117V13.7461H18.1074C18.6113 13.7461 18.9766 13.5879 19.2031 13.2715C19.4297 12.9551 19.5742 12.4883 19.6367 11.8711H19.8594V16.0312H19.6367C19.5898 15.5781 19.4902 15.207 19.3379 14.918C19.1895 14.6289 19.0156 14.4355 18.8164 14.3379C18.6172 14.2363 18.3281 14.1855 17.9492 14.1855V16.4238C17.9492 16.8613 17.9668 17.1289 18.002 17.2266C18.041 17.3242 18.1113 17.4043 18.2129 17.4668C18.3145 17.5293 18.4785 17.5605 18.7051 17.5605H19.1797C19.9219 17.5605 20.5156 17.3887 20.9609 17.0449C21.4102 16.7012 21.7324 16.1777 21.9277 15.4746H22.1445L21.7871 18H14.9199V17.7832H15.1836C15.4141 17.7832 15.5996 17.7422 15.7402 17.6602C15.8418 17.6055 15.9199 17.5117 15.9746 17.3789C16.0176 17.2852 16.0391 17.0391 16.0391 16.6406V11.4141C16.0391 11.0547 16.0293 10.834 16.0098 10.752C15.9707 10.6152 15.8984 10.5098 15.793 10.4355C15.6445 10.3262 15.4414 10.2715 15.1836 10.2715H14.9199V10.0547H21.5703V12.4043H21.3477C21.2344 11.8301 21.0742 11.418 20.8672 11.168C20.6641 10.918 20.375 10.7344 20 10.6172C19.7812 10.5469 19.3711 10.5117 18.7695 10.5117H17.9492ZM30.2598 15.2109L29.9609 18H22.9062V17.7832H23.1699C23.4004 17.7832 23.5859 17.7422 23.7266 17.6602C23.8281 17.6055 23.9062 17.5117 23.9609 17.3789C24.0039 17.2852 24.0254 17.0391 24.0254 16.6406V11.4141C24.0254 11.0078 24.0039 10.7539 23.9609 10.6523C23.918 10.5508 23.8301 10.4629 23.6973 10.3887C23.5684 10.3105 23.3926 10.2715 23.1699 10.2715H22.9062V10.0547H27.1426V10.2715H26.7969C26.5664 10.2715 26.3809 10.3125 26.2402 10.3945C26.1387 10.4492 26.0586 10.543 26 10.6758C25.957 10.7695 25.9355 11.0156 25.9355 11.4141V16.4766C25.9355 16.8828 25.959 17.1426 26.0059 17.2559C26.0527 17.3652 26.1445 17.4473 26.2812 17.502C26.3789 17.5371 26.6152 17.5547 26.9902 17.5547H27.6523C28.0742 17.5547 28.4258 17.4805 28.707 17.332C28.9883 17.1836 29.2305 16.9492 29.4336 16.6289C29.6406 16.3086 29.8359 15.8359 30.0195 15.2109H30.2598ZM33.957 10.5117V13.7461H34.1152C34.6191 13.7461 34.9844 13.5879 35.2109 13.2715C35.4375 12.9551 35.582 12.4883 35.6445 11.8711H35.8672V16.0312H35.6445C35.5977 15.5781 35.498 15.207 35.3457 14.918C35.1973 14.6289 35.0234 14.4355 34.8242 14.3379C34.625 14.2363 34.3359 14.1855 33.957 14.1855V16.4238C33.957 16.8613 33.9746 17.1289 34.0098 17.2266C34.0488 17.3242 34.1191 17.4043 34.2207 17.4668C34.3223 17.5293 34.4863 17.5605 34.7129 17.5605H35.1875C35.9297 17.5605 36.5234 17.3887 36.9688 17.0449C37.418 16.7012 37.7402 16.1777 37.9355 15.4746H38.1523L37.7949 18H30.9277V17.7832H31.1914C31.4219 17.7832 31.6074 17.7422 31.748 17.6602C31.8496 17.6055 31.9277 17.5117 31.9824 17.3789C32.0254 17.2852 32.0469 17.0391 32.0469 16.6406V11.4141C32.0469 11.0547 32.0371 10.834 32.0176 10.752C31.9785 10.6152 31.9062 10.5098 31.8008 10.4355C31.6523 10.3262 31.4492 10.2715 31.1914 10.2715H30.9277V10.0547H37.5781V12.4043H37.3555C37.2422 11.8301 37.082 11.418 36.875 11.168C36.6719 10.918 36.3828 10.7344 36.0078 10.6172C35.7891 10.5469 35.3789 10.5117 34.7773 10.5117H33.957ZM44.3281 9.87305L44.3926 12.5215H44.1523C44.0391 11.8574 43.7598 11.3242 43.3145 10.9219C42.873 10.5156 42.3945 10.3125 41.8789 10.3125C41.4805 10.3125 41.1641 10.4199 40.9297 10.6348C40.6992 10.8457 40.584 11.0898 40.584 11.3672C40.584 11.543 40.625 11.6992 40.707 11.8359C40.8203 12.0195 41.002 12.2012 41.252 12.3809C41.4355 12.5098 41.8594 12.7383 42.5234 13.0664C43.4531 13.5234 44.0801 13.9551 44.4043 14.3613C44.7246 14.7676 44.8848 15.2324 44.8848 15.7559C44.8848 16.4199 44.625 16.9922 44.1055 17.4727C43.5898 17.9492 42.9336 18.1875 42.1367 18.1875C41.8867 18.1875 41.6504 18.1621 41.4277 18.1113C41.2051 18.0605 40.9258 17.9648 40.5898 17.8242C40.4023 17.7461 40.248 17.707 40.127 17.707C40.0254 17.707 39.918 17.7461 39.8047 17.8242C39.6914 17.9023 39.5996 18.0215 39.5293 18.1816H39.3125V15.1816H39.5293C39.7012 16.0254 40.0312 16.6699 40.5195 17.1152C41.0117 17.5566 41.541 17.7773 42.1074 17.7773C42.5449 17.7773 42.8926 17.6582 43.1504 17.4199C43.4121 17.1816 43.543 16.9043 43.543 16.5879C43.543 16.4004 43.4922 16.2188 43.3906 16.043C43.293 15.8672 43.1426 15.7012 42.9395 15.5449C42.7363 15.3848 42.377 15.1777 41.8613 14.9238C41.1387 14.5684 40.6191 14.2656 40.3027 14.0156C39.9863 13.7656 39.7422 13.4863 39.5703 13.1777C39.4023 12.8691 39.3184 12.5293 39.3184 12.1582C39.3184 11.5254 39.5508 10.9863 40.0156 10.541C40.4805 10.0957 41.0664 9.87305 41.7734 9.87305C42.0312 9.87305 42.2812 9.9043 42.5234 9.9668C42.707 10.0137 42.9297 10.1016 43.1914 10.2305C43.457 10.3555 43.6426 10.418 43.748 10.418C43.8496 10.418 43.9297 10.3867 43.9883 10.3242C44.0469 10.2617 44.1016 10.1113 44.1523 9.87305H44.3281ZM50.3633 15.7383H47.5566L47.2227 16.5117C47.1133 16.7695 47.0586 16.9824 47.0586 17.1504C47.0586 17.373 47.1484 17.5371 47.3281 17.6426C47.4336 17.7051 47.6934 17.752 48.1074 17.7832V18H45.4648V17.7832C45.75 17.7402 45.9844 17.623 46.168 17.4316C46.3516 17.2363 46.5781 16.8359 46.8477 16.2305L49.6895 9.89062H49.8008L52.666 16.4062C52.9395 17.0234 53.1641 17.4121 53.3398 17.5723C53.4727 17.6934 53.6602 17.7637 53.9023 17.7832V18H50.0586V17.7832H50.2168C50.5254 17.7832 50.7422 17.7402 50.8672 17.6543C50.9531 17.5918 50.9961 17.502 50.9961 17.3848C50.9961 17.3145 50.9844 17.2422 50.9609 17.168C50.9531 17.1328 50.8945 16.9863 50.7852 16.7285L50.3633 15.7383ZM50.1641 15.3047L48.9805 12.5684L47.7617 15.3047H50.1641ZM58.4375 17.7832V18H54.2832V17.7832H54.5469C54.7773 17.7832 54.9629 17.7422 55.1035 17.6602C55.2051 17.6055 55.2832 17.5117 55.3379 17.3789C55.3809 17.2852 55.4023 17.0391 55.4023 16.6406V11.4141C55.4023 11.0078 55.3809 10.7539 55.3379 10.6523C55.2949 10.5508 55.207 10.4629 55.0742 10.3887C54.9453 10.3105 54.7695 10.2715 54.5469 10.2715H54.2832V10.0547H58.4375V10.2715H58.1738C57.9434 10.2715 57.7578 10.3125 57.6172 10.3945C57.5156 10.4492 57.4355 10.543 57.377 10.6758C57.334 10.7695 57.3125 11.0156 57.3125 11.4141V16.6406C57.3125 17.0469 57.334 17.3008 57.377 17.4023C57.4238 17.5039 57.5117 17.5938 57.6406 17.6719C57.7734 17.7461 57.9512 17.7832 58.1738 17.7832H58.4375Z" fill="black"/>
</svg>
